<?xml version="1.0" encoding="UTF-8"?>
<svg xmlns="http://www.w3.org/2000/svg" version="1.1" viewBox="0 0 144 144">
  <defs>
    <style>
      .cls-1 {
        fill: #fff;
      }

      .cls-2 {
        display: none;
      }
    </style>
  </defs>
  <!-- Generator: Adobe Illustrator 28.7.6, SVG Export Plug-In . SVG Version: 1.2.0 Build 188)  -->
  <g>
    <g id="Layer_2" class="cls-2">
      <g>
        <path class="cls-1" d="M7,5h134v134H7V5ZM73.7,136.1c17.5,0,35,0,52.6,0,6.8,0,11.5-4.7,11.5-11.5,0-35,0-70.1,0-105.1,0-.7,0-1.4-.1-2.1-1-5.7-5.4-9.4-11.4-9.4-35,0-69.9,0-104.9,0-7.2,0-11.8,4.6-11.8,11.8,0,34.9,0,69.7,0,104.6,0,7.2,4.6,11.8,11.8,11.8,17.4,0,34.9,0,52.3,0Z"/>
        <path class="cls-2" d="M97.2,118.5v-50.3h8.9v-12.3H41.4v12.3h40.3v12.5h-1.5c-4.9,0-9.7,0-14.6,0-5.6,0-11.2,0-16.9,0-6.1,0-7.8,4-7,8.7,1,5.7,8.1,12.9,13.7,14,5.3,1.1,8.9-1.6,9.3-7.1,0-1.1,0-2.1,0-3.2h17.1v25.4h15.3Z"/>
        <path class="cls-2" d="M63.8,39.3c.4-.1.7-.2,1-.3,1.7-.3,3.3-.7,5-.9,3.8-.4,6.8,1.2,8.4,4.6,1.5,3.2,2.7,6.6,3.9,9.9.3.9.7,1.2,1.6,1.2,3.7,0,7.3,0,11,0,.4,0,.8,0,1.1,0,0-.3,0-.4,0-.5-1.6-6-3.5-11.9-6.6-17.3-3.8-6.6-9.3-10.3-17-10.4-4.2,0-8.3.4-12.4,2.1,1.3,3.9,2.6,7.8,4,11.7Z"/>
      </g>
    </g>
    <g id="Layer_3">
      <path d="M73.7,136.1c-17.4,0-34.9,0-52.3,0-7.2,0-11.8-4.6-11.8-11.8,0-34.9,0-69.7,0-104.6,0-7.2,4.6-11.8,11.8-11.8,35,0,69.9,0,104.9,0,6,0,10.4,3.7,11.4,9.4.1.7.1,1.4.1,2.1,0,35,0,70.1,0,105.1,0,6.8-4.7,11.5-11.5,11.5-17.5,0-35,0-52.6,0Z"/>
    </g>
    <g id="Layer_4">
      <path class="cls-1" d="M97.2,118.5h-15.3v-25.4h-17.1c0,1.1,0,2.2,0,3.2-.4,5.4-4,8.2-9.3,7.1-5.6-1.1-12.7-8.3-13.7-14-.8-4.7.9-8.7,7-8.7,5.6,0,11.2,0,16.9,0,4.9,0,9.7,0,14.6,0h1.5v-12.5h-40.3v-12.3h64.7v12.3h-8.9v50.3Z"/>
      <path class="cls-1" d="M63.8,39.3c-1.3-3.9-2.6-7.8-4-11.7,4-1.7,8.1-2.2,12.4-2.1,7.7.2,13.2,3.8,17,10.4,3.1,5.4,5,11.3,6.6,17.3,0,.1,0,.3,0,.5-.4,0-.8,0-1.1,0-3.7,0-7.3,0-11,0-.9,0-1.3-.3-1.6-1.2-1.2-3.3-2.4-6.7-3.9-9.9-1.6-3.4-4.6-5-8.4-4.6-1.7.2-3.3.6-5,.9-.3,0-.6.2-1,.3Z"/>
    </g>
  </g>
</svg>